<svg width="40" height="40" viewBox="0 0 40 40" fill="none" xmlns="http://www.w3.org/2000/svg">
<g clip-path="url(#clip0_90_184)">
<path d="M15 30.6667C6.66667 33.1667 6.66667 26.5001 3.33334 25.6667M26.6667 35.6667V29.2167C26.7292 28.422 26.6218 27.6231 26.3517 26.873C26.0816 26.123 25.6549 25.4391 25.1 24.8667C30.3333 24.2834 35.8333 22.3001 35.8333 13.2001C35.8329 10.8731 34.9378 8.63539 33.3333 6.95006C34.0931 4.91424 34.0394 2.66397 33.1833 0.666725C33.1833 0.666725 31.2167 0.0833921 26.6667 3.13339C22.8467 2.0981 18.82 2.0981 15 3.13339C10.45 0.0833921 8.48334 0.666725 8.48334 0.666725C7.6273 2.66397 7.57358 4.91424 8.33334 6.95006C6.71688 8.64789 5.82087 10.9058 5.83334 13.2501C5.83334 22.2834 11.3333 24.2667 16.5667 24.9167C16.0183 25.4833 15.5954 26.1591 15.3255 26.8999C15.0556 27.6408 14.9447 28.4302 15 29.2167V35.6667" stroke="#FEFAF6" stroke-width="2" stroke-linecap="round" stroke-linejoin="round"/>
</g>
<defs>
<clipPath id="clip0_90_184">
<rect width="40" height="40" fill="white"/>
</clipPath>
</defs>
</svg>
